<svg xmlns="http://www.w3.org/2000/svg" viewBox="0 0 133.24 133.24"><defs><style>.cls-1{fill:#6927ff;}</style></defs><g id="Layer_2" data-name="Layer 2"><g id="Layer_1-2" data-name="Layer 1"><path class="cls-1" d="M26.41,60.24c.45-5.79,6.7-10.39,13.91-10.46,7-.07,13.79,3,14.38,11.44l-8.22.08c-.37-2.93-3.06-4.16-5.75-4.14-2.18,0-4.69.89-5.51,2.24a4,4,0,0,0-.3,3.53c.51,1.5,2.7,2.4,4.81,3l6.05,1.45c8.5,2,10.31,7.36,10.35,11.31.08,7.55-6.51,11.89-15.49,12-7.3.07-14.89-4.47-15.14-12.69l8-.07c.45,3.35,3.24,5.58,7.77,5.54,3.95,0,6.95-1.83,6.92-4.77,0-2.51-2.64-3.91-5.5-4.56l-5.3-1.2C29,70.7,26,66.54,26.41,60.24Z"/><path class="cls-1" d="M66.57,89.55,66,29.06,74.61,29l.27,26.93c2.39-4.3,7.57-6.53,13.1-6.59,10.66-.1,19.63,7.69,19.76,20.28.12,12.33-8.86,20.47-19.43,20.58-5.29,0-10.68-2.24-13.16-6.41l.06,5.7Zm20.65-7.76c6.54-.06,11.78-5.07,11.7-12.28A11.48,11.48,0,0,0,87,57.71c-5.88.06-12,4.31-11.88,12A11.67,11.67,0,0,0,87.22,81.79Z"/><path class="cls-1" d="M66.62,133.24a66.62,66.62,0,1,1,66.62-66.62A66.69,66.69,0,0,1,66.62,133.24ZM66.62,5a61.62,61.62,0,1,0,61.62,61.62A61.69,61.69,0,0,0,66.62,5Z"/></g></g></svg>